<?xml version="1.0" standalone="no"?>
<!DOCTYPE svg PUBLIC "-//W3C//DTD SVG 20010904//EN"
 "http://www.w3.org/TR/2001/REC-SVG-20010904/DTD/svg10.dtd">
<svg version="1.0" xmlns="http://www.w3.org/2000/svg"
 width="260.000000pt" height="260.000000pt" viewBox="0 0 260.000000 260.000000"
 preserveAspectRatio="xMidYMid meet">
<metadata>
Created by potrace 1.11, written by Peter Selinger 2001-2013
</metadata>
<g transform="translate(0.000000,260.000000) scale(0.100000,-0.100000)"
fill="#000000" stroke="none">
<path d="M590 2453 c0 -4 -12 -9 -27 -9 -55 -3 -83 -8 -83 -16 0 -4 -9 -8 -21
-8 -11 0 -17 -4 -14 -10 3 -5 1 -10 -6 -10 -21 0 -89 -82 -89 -107 0 -13 -4
-23 -10 -23 -7 0 -10 -268 -10 -784 0 -777 0 -785 20 -781 11 2 22 -1 25 -6 4
-5 11 -7 16 -3 20 12 61 15 54 3 -5 -8 -1 -8 14 1 16 8 26 8 35 1 7 -6 15 -8
18 -5 12 11 57 14 64 3 5 -8 9 -7 14 2 7 10 12 10 23 0 9 -7 18 -8 21 -2 7 10
24 10 43 -2 6 -4 13 -1 16 5 3 10 7 10 19 1 8 -7 18 -10 22 -6 3 4 21 8 39 9
17 1 34 2 37 3 3 0 5 301 5 668 0 661 0 668 20 668 11 0 23 5 27 10 5 7 8 7 8
0 0 -5 14 -10 30 -10 17 0 30 4 30 8 0 5 5 5 12 1 18 -12 58 -11 58 1 0 6 3 7
8 0 9 -13 42 -16 42 -3 0 5 5 6 12 2 17 -11 78 -10 78 1 0 7 3 7 8 0 9 -13
103 -15 95 -2 -3 6 -1 7 5 4 5 -4 29 -8 52 -9 22 -1 43 -5 46 -10 3 -4 14 -3
25 2 10 6 19 7 19 3 0 -4 16 -9 37 -10 20 -1 39 -7 43 -14 4 -6 13 -9 19 -5 6
4 21 1 33 -6 13 -7 25 -13 28 -13 12 -2 75 -39 88 -51 7 -8 18 -14 23 -14 5 0
9 -6 9 -14 0 -8 9 -18 20 -21 11 -3 20 -12 20 -18 0 -7 9 -19 19 -27 11 -7 18
-17 15 -22 -3 -4 2 -15 10 -24 9 -9 14 -20 11 -25 -4 -5 1 -9 10 -9 9 0 14 -4
11 -9 -3 -5 1 -21 9 -37 7 -15 12 -31 9 -36 -3 -4 -1 -8 5 -8 5 0 10 -8 9 -17
0 -10 3 -29 7 -43 4 -14 8 -39 9 -56 2 -17 6 -36 10 -42 4 -7 5 -12 2 -12 -3
0 -1 -11 4 -24 6 -17 5 -26 -3 -30 -9 -3 -9 -5 0 -5 6 -1 9 -10 6 -21 -3 -12
0 -20 7 -20 8 0 9 -4 4 -12 -5 -7 -9 -61 -9 -120 1 -60 -3 -108 -7 -108 -5 0
-6 -5 -2 -11 3 -6 0 -15 -7 -20 -9 -5 -10 -9 -2 -9 7 0 10 -13 7 -37 -3 -21
-6 -46 -7 -55 -1 -10 -4 -18 -8 -18 -4 0 -7 -6 -6 -12 1 -42 -4 -68 -13 -63
-6 4 -10 3 -9 -2 5 -26 -2 -63 -11 -58 -9 5 -15 -15 -11 -37 0 -5 -4 -8 -11
-8 -6 0 -9 -3 -5 -6 7 -8 -4 -21 -81 -100 -34 -35 -69 -64 -77 -64 -8 0 -15
-3 -15 -7 0 -11 -51 -33 -61 -27 -5 3 -9 0 -9 -6 0 -6 -4 -9 -9 -5 -5 3 -12 1
-16 -5 -3 -5 -16 -10 -29 -10 -12 0 -28 -6 -35 -13 -11 -10 -12 -9 -6 3 7 12
6 13 -6 3 -8 -6 -27 -10 -42 -9 -15 2 -27 -1 -27 -7 0 -5 -8 -3 -17 4 -9 8
-14 9 -10 3 4 -7 -2 -14 -13 -17 -11 -3 -20 0 -20 6 0 7 -5 5 -10 -3 -6 -10
-10 -11 -10 -3 0 8 -7 10 -22 5 -13 -4 -80 -7 -150 -7 -110 0 -128 -2 -137
-17 -6 -10 -7 -18 -2 -18 10 0 9 -19 -1 -35 -4 -6 -3 -17 2 -25 5 -9 4 -20 -3
-29 -9 -11 -9 -13 0 -8 12 8 13 -39 0 -59 -3 -6 -3 -14 1 -18 11 -12 10 -80
-2 -88 -8 -6 -8 -8 0 -8 7 0 11 -17 9 -45 -1 -25 2 -48 7 -51 4 -3 6 -10 3
-15 -4 -5 1 -9 9 -9 9 0 16 6 16 13 0 8 3 9 8 1 7 -12 47 -12 58 -1 4 4 12 7
18 7 6 0 4 -5 -4 -10 -11 -7 -8 -9 15 -8 17 1 36 6 44 12 11 8 13 8 7 -1 -4
-7 -3 -13 3 -13 5 0 13 5 16 10 4 6 12 7 18 3 22 -14 49 -14 41 -1 -5 10 -4
10 6 1 10 -9 17 -10 27 -2 10 9 13 8 13 -2 0 -11 2 -11 10 1 9 13 10 13 10 0
0 -13 1 -13 10 0 5 8 10 10 10 4 0 -6 7 -11 15 -11 8 0 12 3 10 7 -2 3 35 7
83 8 54 2 90 7 95 15 7 9 10 9 14 -1 3 -8 9 -10 16 -4 7 5 30 12 52 16 44 7
77 13 85 16 3 1 8 2 13 1 4 0 7 3 7 9 0 5 6 10 14 10 8 0 27 5 43 12 15 6 30
12 33 13 16 4 100 52 128 73 17 13 32 22 32 18 0 -12 170 147 170 160 0 5 12
20 25 33 14 13 24 26 21 28 -2 2 7 16 20 30 13 14 21 29 19 33 -3 5 -2 10 3
12 10 4 62 107 62 124 0 8 4 14 9 14 5 0 8 8 7 18 -2 9 1 20 6 23 5 3 11 17
13 30 2 13 6 35 10 49 4 14 8 35 10 46 2 12 7 30 12 40 5 11 8 33 7 49 -1 17
3 41 9 55 15 37 17 51 5 44 -6 -4 -7 0 -1 12 10 23 10 305 -1 322 -4 7 -2 12
6 12 8 0 9 3 3 8 -12 8 -13 14 -19 79 -2 26 -7 58 -9 69 -3 12 -8 37 -11 56
-3 20 -10 47 -15 62 -6 14 -8 26 -5 26 2 0 -3 14 -11 30 -9 17 -13 36 -9 42 4
7 3 8 -4 4 -7 -4 -13 -1 -14 6 -4 36 -16 67 -34 88 -12 15 -14 19 -14 41 0 5
-4 7 -10 4 -6 -3 -7 1 -4 9 3 9 2 16 -4 16 -5 0 -15 14 -22 30 -7 17 -16 30
-21 30 -5 0 -9 4 -9 10 0 15 -73 96 -130 143 -35 29 -123 84 -147 91 -13 4
-23 11 -23 15 0 4 -6 8 -12 8 -21 2 -82 27 -90 38 -4 6 -8 7 -8 3 0 -4 -12 -3
-27 3 -16 6 -41 12 -57 15 -15 2 -35 6 -45 8 -15 5 -62 13 -121 21 -14 2 -26
4 -27 5 -7 6 -30 5 -44 -1 -9 -5 -21 -3 -27 3 -7 7 -12 9 -12 5 0 -4 -10 -3
-21 4 -15 8 -19 8 -15 0 4 -6 4 -11 1 -11 -4 0 -16 5 -27 11 -11 6 -18 7 -15
2 3 -5 -18 -9 -48 -9 -29 1 -51 4 -49 8 3 5 0 8 -5 8 -6 0 -11 -4 -11 -10 0
-5 -7 -6 -17 -3 -12 5 -14 3 -8 -8 7 -11 6 -12 -6 -3 -8 7 -25 11 -39 10 -14
-1 -31 2 -37 7 -8 6 -13 6 -13 0 0 -11 -29 -11 -48 1 -6 4 -12 3 -12 -2 0 -10
-42 -8 -61 4 -8 4 -9 3 -5 -4 9 -15 1 -15 -26 -1 -15 8 -19 8 -14 0 4 -6 4
-11 1 -11 -4 0 -16 5 -27 11 -15 8 -19 8 -14 0 4 -6 4 -11 1 -11 -4 0 -16 5
-27 11 -15 8 -19 8 -14 0 8 -12 -21 -11 -41 2 -7 5 -13 4 -13 -2 0 -6 -7 -7
-17 -4 -12 5 -14 3 -8 -8 5 -8 -1 -5 -13 5 -12 11 -22 15 -22 10 0 -5 -11 -10
-25 -10 -14 -1 -22 2 -19 7 3 5 0 9 -5 9 -6 0 -11 -5 -11 -11 0 -5 -5 -7 -10
-4 -6 4 -18 1 -27 -7 -10 -8 -14 -8 -10 -1 4 6 3 14 -3 18 -5 3 -10 3 -10 -2z"/>
<path d="M992 1118 c-7 -7 -12 -8 -12 -4 0 5 -7 3 -15 -4 -10 -9 -12 -17 -5
-30 7 -13 6 -20 -3 -23 -9 -4 -8 -6 2 -6 11 -1 11 -4 1 -16 -7 -8 -8 -15 -3
-15 5 0 9 -9 9 -20 0 -11 -5 -20 -11 -20 -5 0 -3 -5 5 -10 12 -8 12 -10 1 -10
-10 0 -11 -4 -3 -12 15 -19 15 -30 0 -39 -11 -7 -11 -9 1 -9 10 0 11 -3 2 -14
-9 -11 -9 -16 0 -21 8 -6 7 -10 -2 -16 -12 -7 -12 -9 0 -9 10 0 11 -3 2 -14
-9 -11 -9 -16 0 -21 8 -6 7 -10 -2 -16 -8 -5 -9 -9 -3 -9 12 0 12 -28 1 -47
-11 -18 33 -45 50 -31 7 6 13 6 13 1 0 -11 29 -11 48 1 6 4 12 3 12 -1 0 -5 9
-9 19 -9 11 0 17 4 15 8 -7 10 -1 10 30 -1 17 -7 26 -7 30 2 3 8 7 9 13 2 4
-5 15 -10 23 -10 8 0 18 5 23 10 4 6 11 4 17 -5 9 -13 10 -13 10 0 0 13 1 13
10 0 9 -13 10 -13 10 0 0 13 1 13 10 0 9 -13 10 -13 10 0 0 13 1 13 10 0 9
-13 10 -13 10 0 0 13 1 13 10 0 9 -13 10 -13 10 0 0 13 1 13 10 0 9 -13 10
-13 10 0 0 13 1 13 10 0 9 -13 10 -13 10 0 0 9 3 11 8 5 8 -12 53 -15 46 -3
-3 4 0 8 5 8 7 0 11 60 11 180 0 113 -4 180 -10 180 -5 0 -10 6 -10 14 0 17
-25 28 -70 30 -20 1 -41 6 -48 10 -7 4 -12 3 -12 -2 0 -12 -63 -9 -72 3 -5 7
-8 7 -8 0 0 -5 -20 -10 -45 -11 -25 0 -45 4 -45 9 0 5 -8 3 -17 -4 -14 -12
-16 -12 -8 0 6 10 4 12 -6 6 -17 -11 -82 -13 -90 -3 -3 4 -10 3 -17 -4z"/>
<path d="M420 584 c0 -6 -17 -10 -41 -9 -26 1 -43 -3 -46 -12 -9 -22 -8 -103
0 -103 5 0 5 -5 2 -11 -10 -16 -11 -189 -1 -189 5 0 4 -6 -2 -13 -15 -18 15
-77 39 -77 11 0 19 -4 19 -8 0 -11 39 -12 45 -1 4 5 12 6 18 2 20 -13 127 -12
127 1 0 7 3 7 8 1 10 -14 56 -15 64 -1 6 8 8 8 8 -1 0 -14 68 -15 76 -1 3 5
12 4 19 -2 18 -15 52 -4 57 18 3 14 2 312 -1 378 -1 20 -6 21 -91 20 -49 -1
-90 2 -90 7 0 4 -6 5 -12 0 -19 -11 -182 -10 -190 2 -5 7 -8 6 -8 -1z"/>
</g>
</svg>
